<svg width="29" height="29" viewBox="0 0 29 29" fill="none" xmlns="http://www.w3.org/2000/svg">
<path fill-rule="evenodd" clip-rule="evenodd" d="M14.5109 28.3923C16.3339 28.3923 18.1391 28.0332 19.8234 27.3356C21.5077 26.6379 23.0381 25.6153 24.3272 24.3262C25.6163 23.0371 26.6389 21.5068 27.3366 19.8225C28.0342 18.1382 28.3933 16.3329 28.3933 14.5099C28.3933 12.6868 28.0342 10.8816 27.3366 9.1973C26.6389 7.513 25.6163 5.98262 24.3272 4.69351C23.0381 3.40441 21.5077 2.38184 19.8234 1.68418C18.1391 0.986521 16.3339 0.627441 14.5109 0.627441C10.829 0.627441 7.29795 2.09005 4.69449 4.69351C2.09103 7.29697 0.628418 10.828 0.628418 14.5099C0.628418 18.1917 2.09103 21.7228 4.69449 24.3262C7.29795 26.9297 10.829 28.3923 14.5109 28.3923ZM14.153 20.1246L21.8655 10.8696L19.4962 8.8952L12.8635 16.8529L9.43143 13.4193L7.25034 15.6004L11.8778 20.2279L13.0717 21.4218L14.153 20.1246Z" fill="#30BB54"/>
</svg>
