<svg width="55" height="59" viewBox="0 0 55 59" fill="none" xmlns="http://www.w3.org/2000/svg">
<path d="M34.8327 20.5C36.2914 20.5 37.6903 21.0795 38.7218 22.1109C39.7532 23.1424 40.3327 24.5413 40.3327 26V44.3333C40.3327 45.792 39.7532 47.191 38.7218 48.2224C37.6903 49.2539 36.2914 49.8333 34.8327 49.8333H13.4432L7.33268 54.4167C5.82202 55.5497 3.66602 54.4717 3.66602 52.5833V26C3.66602 24.5413 4.24548 23.1424 5.27693 22.1109C6.30838 21.0795 7.70732 20.5 9.16602 20.5H34.8327ZM34.8327 24.1667H9.16602C8.67979 24.1667 8.21347 24.3598 7.86965 24.7036C7.52584 25.0475 7.33268 25.5138 7.33268 26V49.8333L11.2432 46.9C11.8779 46.424 12.6498 46.1667 13.4432 46.1667H34.8327C35.3189 46.1667 35.7852 45.9735 36.129 45.6297C36.4729 45.2859 36.666 44.8196 36.666 44.3333V26C36.666 25.5138 36.4729 25.0475 36.129 24.7036C35.7852 24.3598 35.3189 24.1667 34.8327 24.1667ZM20.166 37C20.6333 37.0005 21.0827 37.1794 21.4225 37.5002C21.7623 37.821 21.9668 38.2594 21.9942 38.7259C22.0215 39.1924 21.8698 39.6517 21.5699 40.01C21.2699 40.3684 20.8445 40.5986 20.3805 40.6538L20.166 40.6667H14.666C14.1987 40.6661 13.7493 40.4872 13.4095 40.1664C13.0697 39.8457 12.8653 39.4073 12.8379 38.9408C12.8105 38.4743 12.9623 38.015 13.2622 37.6566C13.5621 37.2983 13.9875 37.068 14.4515 37.0128L14.666 37H20.166ZM29.3327 29.6667C29.8189 29.6667 30.2852 29.8598 30.629 30.2036C30.9729 30.5475 31.166 31.0138 31.166 31.5C31.166 31.9862 30.9729 32.4525 30.629 32.7964C30.2852 33.1402 29.8189 33.3333 29.3327 33.3333H14.666C14.1798 33.3333 13.7135 33.1402 13.3697 32.7964C13.0258 32.4525 12.8327 31.9862 12.8327 31.5C12.8327 31.0138 13.0258 30.5475 13.3697 30.2036C13.7135 29.8598 14.1798 29.6667 14.666 29.6667H29.3327Z" fill="#30BB54"/>
<rect x="23.75" y="3.55005" width="28" height="37" fill="white"/>
<path d="M54.85 11.025C54.85 13.949 53.6884 16.7533 51.6209 18.8209C49.5533 20.8884 46.749 22.05 43.825 22.05C40.901 22.05 38.0967 20.8884 36.0291 18.8209C33.9616 16.7533 32.8 13.949 32.8 11.025C32.8 8.10099 33.9616 5.29674 36.0291 3.22915C38.0967 1.16156 40.901 0 43.825 0C46.749 0 49.5533 1.16156 51.6209 3.22915C53.6884 5.29674 54.85 8.10099 54.85 11.025ZM49.5923 6.4827C49.4785 6.36862 49.3433 6.27811 49.1945 6.21635C49.0457 6.1546 48.8861 6.12281 48.725 6.12281C48.5639 6.12281 48.4043 6.1546 48.2555 6.21635C48.1067 6.27811 47.9715 6.36862 47.8577 6.4827L41.375 12.9679L39.7923 11.3827C39.6784 11.2688 39.5432 11.1785 39.3944 11.1168C39.2456 11.0552 39.0861 11.0235 38.925 11.0235C38.7639 11.0235 38.6044 11.0552 38.4556 11.1168C38.3068 11.1785 38.1716 11.2688 38.0577 11.3827C37.9438 11.4966 37.8535 11.6318 37.7918 11.7806C37.7302 11.9294 37.6985 12.0889 37.6985 12.25C37.6985 12.4111 37.7302 12.5706 37.7918 12.7194C37.8535 12.8682 37.9438 13.0034 38.0577 13.1173L40.5077 15.5673C40.6215 15.6814 40.7567 15.7719 40.9055 15.8336C41.0543 15.8954 41.2139 15.9272 41.375 15.9272C41.5361 15.9272 41.6957 15.8954 41.8445 15.8336C41.9933 15.7719 42.1285 15.6814 42.2423 15.5673L49.5923 8.2173C49.7064 8.10351 49.7969 7.96833 49.8586 7.8195C49.9204 7.67068 49.9522 7.51113 49.9522 7.35C49.9522 7.18887 49.9204 7.02932 49.8586 6.8805C49.7969 6.73167 49.7064 6.59649 49.5923 6.4827ZM33.4297 2.45H26.675C25.7003 2.45 24.7656 2.83719 24.0764 3.52638C23.3872 4.21558 23 5.15033 23 6.125V37.975C23 38.9497 23.3872 39.8844 24.0764 40.5736C24.7656 41.2628 25.7003 41.65 26.675 41.65H43.825C44.7997 41.65 45.7344 41.2628 46.4236 40.5736C47.1128 39.8844 47.5 38.9497 47.5 37.975V23.9929C46.6991 24.2193 45.8789 24.371 45.05 24.4461V37.975C45.05 38.2999 44.9209 38.6115 44.6912 38.8412C44.4615 39.0709 44.1499 39.2 43.825 39.2H26.675C26.3501 39.2 26.0385 39.0709 25.8088 38.8412C25.5791 38.6115 25.45 38.2999 25.45 37.975V6.125C25.45 5.80011 25.5791 5.48853 25.8088 5.25879C26.0385 5.02906 26.3501 4.9 26.675 4.9H31.82C32.2708 4.02127 32.8074 3.2046 33.4297 2.45ZM30.35 33.075C30.35 32.7501 30.4791 32.4385 30.7088 32.2088C30.9385 31.9791 31.2501 31.85 31.575 31.85H38.925C39.2499 31.85 39.5615 31.9791 39.7912 32.2088C40.0209 32.4385 40.15 32.7501 40.15 33.075C40.15 33.3999 40.0209 33.7115 39.7912 33.9412C39.5615 34.1709 39.2499 34.3 38.925 34.3H31.575C31.2501 34.3 30.9385 34.1709 30.7088 33.9412C30.4791 33.7115 30.35 33.3999 30.35 33.075Z" fill="#30BB54"/>
</svg>
