<svg xmlns="http://www.w3.org/2000/svg" id="Layer_1" data-name="Layer 1" viewBox="0 0 60 60"><defs><style>.cls-1{fill:#a80532;}</style></defs><path class="cls-1" d="M30.57,11a21.83,21.83,0,0,0-4.23.42,11.58,11.58,0,0,1,.19,2.84c-.24,3.67-1.17,5-1.17,5l-5.25,1.48a4.82,4.82,0,0,0,.13-3.48,4.4,4.4,0,0,0-1.77-2.5A21.31,21.31,0,1,0,30.57,11Zm4,19.08h8.54a13.28,13.28,0,0,1,.45,2.08H35.3A11.36,11.36,0,0,0,34.58,30.1Zm6.29-4.29A13,13,0,0,1,43,29.66H34.37a19.15,19.15,0,0,0-2.54-3.85S40.85,25.79,40.87,25.81Zm-1.55,23.1-.24,2s-2.43.26-2.3-1.73H24.69c-.36,2-2.72,1.73-2.72,1.73l.25-2,0-.39H39.37Zm3.27-9.7a13.41,13.41,0,0,1-3.13,4.4,12.79,12.79,0,0,1-4.39,2.7,13.13,13.13,0,0,1-8.53.19,12.73,12.73,0,0,1-4.84-2.78,12.42,12.42,0,0,1-3.08-4.12A13.26,13.26,0,0,1,17.94,30,13.42,13.42,0,0,1,20.88,25c1.37-1.41,10.3-10.31,10.3-10.31l5.36,6.14S28.48,28.9,27,30.39a5,5,0,0,0,6.38,7.72,5,5,0,0,0,2.18-4.51,8.39,8.39,0,0,0-.13-1h8.22A13.31,13.31,0,0,1,42.59,39.21Z"></path><path class="cls-1" d="M52,19.53a1.33,1.33,0,1,1-1.33-1.3A1.31,1.31,0,0,1,52,19.53Zm-2.33,0a1,1,0,1,0,1-1A1,1,0,0,0,49.67,19.53Zm.8.68h-.3v-1.3a2.81,2.81,0,0,1,.49,0,.74.74,0,0,1,.45.1.32.32,0,0,1-.14.58v0a.38.38,0,0,1,.24.32,1.18,1.18,0,0,0,.09.32H51a1.2,1.2,0,0,1-.1-.32c0-.14-.11-.2-.27-.2h-.14Zm0-.74h.15c.16,0,.3,0,.3-.19s-.09-.19-.28-.19h-.17Z"></path></svg>