<svg width="284" height="330" viewBox="0 0 284 330" fill="none" xmlns="http://www.w3.org/2000/svg">
<path d="M180.94 328.592C144.038 323.218 116.991 296.124 111.512 259.042C110.358 251.229 110.519 237.985 111.858 230.668C112.227 228.651 114.194 217.551 116.23 206.001C118.265 194.451 121.879 173.963 124.259 160.472C126.64 146.98 129.039 135.071 129.59 134.006C130.141 132.941 131.693 131.229 133.04 130.202L135.489 128.334H207.762H280.036L281.981 130.511C285.612 134.574 284.128 140.79 278.645 144.485C276.401 145.997 276.337 146.001 250.328 146.003C222.012 146.005 216.267 146.431 204.751 149.388C177.417 156.405 151.417 177.83 138.604 203.895C122.801 236.042 126.756 270.37 148.756 292.026C169.849 312.789 202.999 317.18 231.33 302.964C257.19 289.987 274.595 260.41 270.331 236.686C266.933 217.779 250.841 204.728 230.866 204.679C211.317 204.631 191.862 220.382 187.554 239.746C184.006 255.695 192.594 268.318 208.156 270.026C212.094 270.459 213.146 270.843 214.408 272.311C216.168 274.357 216.311 275.99 214.96 278.602C213.179 282.048 211.029 282.885 204.983 282.49C192.562 281.677 182.769 275.215 177.328 264.242C169.974 249.411 175.21 227.464 189.852 211.751C197.074 204 210.109 196.205 220.26 193.566C226.575 191.924 240.452 191.95 246.591 193.615C266.942 199.134 280.286 214.056 283.299 234.664C285.385 248.929 280.307 269.318 270.915 284.388C256.955 306.786 232.783 323.453 207.23 328.301C201.316 329.423 187.682 329.573 180.94 328.592ZM79.4688 237.025C78.3009 236.517 76.8384 235.122 76.219 233.924C75.2334 232.018 75.1865 231.074 75.8434 226.373C80.7644 191.156 62.8604 160.511 31.2433 150.034C24.9566 147.951 19.14 146.85 11.592 146.312C7.92536 146.051 4.16474 145.45 3.2351 144.976C0.766198 143.718 -0.313892 141.251 0.0786899 137.768C0.510037 133.941 2.74343 130.837 6.19274 129.271C8.77518 128.098 11.5453 128.029 56.5922 128.018C102.677 128.006 104.33 128.049 106.389 129.305C110.777 131.98 110.902 130.566 101.647 182.832C97.0535 208.773 92.8655 230.823 92.3404 231.833C91.0332 234.345 88.6969 236.336 85.9929 237.242C83.123 238.203 82.0991 238.169 79.4688 237.025ZM138.128 108.536C136.646 107.82 134.593 104.298 134.593 102.474C134.593 99.5402 151.47 6.85956 152.295 5.2648C153.865 2.22831 157.72 0 161.404 0C163.965 0 164.989 0.373427 166.749 1.95011C168.904 3.88089 168.923 3.9486 168.607 8.78347C168.431 11.4693 168.295 18.4667 168.304 24.3334C168.318 33.2863 168.564 35.9106 169.836 40.6668C173.252 53.4374 178.285 62.4183 186.886 71.0888C196.246 80.5237 205.869 86.0075 218.959 89.3659C224.254 90.7245 227.066 90.9403 243.926 91.282C264.788 91.7048 265.024 91.7517 266.973 95.8588C268.229 98.5062 267.791 101.322 265.592 104.73C262.445 109.605 266.296 109.339 199.492 109.289C158.693 109.258 139.125 109.018 138.128 108.536Z" fill="#0172BB"/>
</svg>
